<svg width="1600" height="1050" viewBox="0 0 1600 1050" xmlns="http://www.w3.org/2000/svg">
  <defs>
    <style>
      .bg { fill: #ffffff; }
      .title { font: 800 46px Arial, sans-serif; fill: #0f172a; }
      .subtitle { font: 600 24px Arial, sans-serif; fill: #475569; }
      .axis { font: 800 28px Arial, sans-serif; fill: #0f172a; }
      .label { font: 800 25px Arial, sans-serif; fill: #0f172a; }
      .text { font: 600 20px Arial, sans-serif; fill: #334155; }
      .small { font: 600 17px Arial, sans-serif; fill: #334155; }
      .tiny { font: 600 14px Arial, sans-serif; fill: #475569; }
      .cell-light { fill: #ffffff; stroke: #cbd5e1; stroke-width: 2; }
      .cell-dark { fill: #f1f5f9; stroke: #cbd5e1; stroke-width: 2; }
      .active-cell { fill: #bbf7d0; stroke: #16a34a; stroke-width: 6; }
      .col-hl { fill: #bfdbfe; opacity: 0.72; }
      .row-hl { fill: #fed7aa; opacity: 0.72; }
      .board-border { fill: none; stroke: #0f172a; stroke-width: 5; }
      .col-wire { stroke: #2563eb; stroke-width: 6; fill: none; stroke-linecap: round; }
      .row-wire { stroke: #ea580c; stroke-width: 6; fill: none; stroke-linecap: round; }
      .reed { stroke: #15803d; stroke-width: 4; fill: none; stroke-linecap: round; }
      .diode { stroke: #7e22ce; stroke-width: 4; fill: none; stroke-linecap: round; stroke-linejoin: round; }
      .callout { fill: #f8fafc; stroke: #334155; stroke-width: 4; rx: 26; }
      .blue-card { fill: #dbeafe; stroke: #2563eb; stroke-width: 3; rx: 18; }
      .orange-card { fill: #ffedd5; stroke: #ea580c; stroke-width: 3; rx: 18; }
      .green-card { fill: #dcfce7; stroke: #16a34a; stroke-width: 3; rx: 18; }
      .purple-card { fill: #f3e8ff; stroke: #9333ea; stroke-width: 3; rx: 18; }
      .note-card { fill: #fef9c3; stroke: #a16207; stroke-width: 3; rx: 18; }
      .arrow { stroke: #0f172a; stroke-width: 5; fill: none; marker-end: url(#arrowhead); stroke-linecap: round; }
      .arrow-blue { stroke: #2563eb; stroke-width: 5; fill: none; marker-end: url(#arrowblue); stroke-linecap: round; }
      .arrow-orange { stroke: #ea580c; stroke-width: 5; fill: none; marker-end: url(#arroworange); stroke-linecap: round; }
    </style>

    <marker id="arrowhead" markerWidth="14" markerHeight="14" refX="12" refY="5" orient="auto">
      <polygon points="0 0, 13 5, 0 10" fill="#0f172a"/>
    </marker>
    <marker id="arrowblue" markerWidth="14" markerHeight="14" refX="12" refY="5" orient="auto">
      <polygon points="0 0, 13 5, 0 10" fill="#2563eb"/>
    </marker>
    <marker id="arroworange" markerWidth="14" markerHeight="14" refX="12" refY="5" orient="auto">
      <polygon points="0 0, 13 5, 0 10" fill="#ea580c"/>
    </marker>

    <symbol id="cell-symbol" viewBox="0 0 90 90">
      <line x1="23" y1="62" x2="40" y2="45" class="reed"/>
      <line x1="47" y1="39" x2="64" y2="22" class="reed"/>
      <polygon points="36,58 47,69 49,51" fill="#f3e8ff" stroke="#7e22ce" stroke-width="3"/>
      <line x1="52" y1="48" x2="65" y2="61" class="diode"/>
    </symbol>
  </defs>

  <rect class="bg" width="1600" height="1050"/>

  <text x="800" y="62" text-anchor="middle" class="title">Matriz 8×8 de reed switches</text>
  <text x="800" y="100" text-anchor="middle" class="subtitle">Organização elétrica do tabuleiro: uma coluna é ativada e as linhas são lidas pelo ESP32</text>

  <!-- Board constants: x=100, y=165, cell=90, size=720 -->
  <!-- highlights for D5: file D index 3, rank 5 row from top rank 8 -> row 3 -->
  <rect x="370" y="165" width="90" height="720" class="col-hl"/>
  <rect x="100" y="435" width="720" height="90" class="row-hl"/>

  <!-- cells -->
  <g>
    <rect x="100" y="165" width="90" height="90" class="cell-light"/>
    <rect x="190" y="165" width="90" height="90" class="cell-dark"/>
    <rect x="280" y="165" width="90" height="90" class="cell-light"/>
    <rect x="370" y="165" width="90" height="90" class="cell-dark"/>
    <rect x="460" y="165" width="90" height="90" class="cell-light"/>
    <rect x="550" y="165" width="90" height="90" class="cell-dark"/>
    <rect x="640" y="165" width="90" height="90" class="cell-light"/>
    <rect x="730" y="165" width="90" height="90" class="cell-dark"/>

    <rect x="100" y="255" width="90" height="90" class="cell-dark"/>
    <rect x="190" y="255" width="90" height="90" class="cell-light"/>
    <rect x="280" y="255" width="90" height="90" class="cell-dark"/>
    <rect x="370" y="255" width="90" height="90" class="cell-light"/>
    <rect x="460" y="255" width="90" height="90" class="cell-dark"/>
    <rect x="550" y="255" width="90" height="90" class="cell-light"/>
    <rect x="640" y="255" width="90" height="90" class="cell-dark"/>
    <rect x="730" y="255" width="90" height="90" class="cell-light"/>

    <rect x="100" y="345" width="90" height="90" class="cell-light"/>
    <rect x="190" y="345" width="90" height="90" class="cell-dark"/>
    <rect x="280" y="345" width="90" height="90" class="cell-light"/>
    <rect x="370" y="345" width="90" height="90" class="cell-dark"/>
    <rect x="460" y="345" width="90" height="90" class="cell-light"/>
    <rect x="550" y="345" width="90" height="90" class="cell-dark"/>
    <rect x="640" y="345" width="90" height="90" class="cell-light"/>
    <rect x="730" y="345" width="90" height="90" class="cell-dark"/>

    <rect x="100" y="435" width="90" height="90" class="cell-dark"/>
    <rect x="190" y="435" width="90" height="90" class="cell-light"/>
    <rect x="280" y="435" width="90" height="90" class="cell-dark"/>
    <rect x="370" y="435" width="90" height="90" class="active-cell"/>
    <rect x="460" y="435" width="90" height="90" class="cell-dark"/>
    <rect x="550" y="435" width="90" height="90" class="cell-light"/>
    <rect x="640" y="435" width="90" height="90" class="cell-dark"/>
    <rect x="730" y="435" width="90" height="90" class="cell-light"/>

    <rect x="100" y="525" width="90" height="90" class="cell-light"/>
    <rect x="190" y="525" width="90" height="90" class="cell-dark"/>
    <rect x="280" y="525" width="90" height="90" class="cell-light"/>
    <rect x="370" y="525" width="90" height="90" class="cell-dark"/>
    <rect x="460" y="525" width="90" height="90" class="cell-light"/>
    <rect x="550" y="525" width="90" height="90" class="cell-dark"/>
    <rect x="640" y="525" width="90" height="90" class="cell-light"/>
    <rect x="730" y="525" width="90" height="90" class="cell-dark"/>

    <rect x="100" y="615" width="90" height="90" class="cell-dark"/>
    <rect x="190" y="615" width="90" height="90" class="cell-light"/>
    <rect x="280" y="615" width="90" height="90" class="cell-dark"/>
    <rect x="370" y="615" width="90" height="90" class="cell-light"/>
    <rect x="460" y="615" width="90" height="90" class="cell-dark"/>
    <rect x="550" y="615" width="90" height="90" class="cell-light"/>
    <rect x="640" y="615" width="90" height="90" class="cell-dark"/>
    <rect x="730" y="615" width="90" height="90" class="cell-light"/>

    <rect x="100" y="705" width="90" height="90" class="cell-light"/>
    <rect x="190" y="705" width="90" height="90" class="cell-dark"/>
    <rect x="280" y="705" width="90" height="90" class="cell-light"/>
    <rect x="370" y="705" width="90" height="90" class="cell-dark"/>
    <rect x="460" y="705" width="90" height="90" class="cell-light"/>
    <rect x="550" y="705" width="90" height="90" class="cell-dark"/>
    <rect x="640" y="705" width="90" height="90" class="cell-light"/>
    <rect x="730" y="705" width="90" height="90" class="cell-dark"/>

    <rect x="100" y="795" width="90" height="90" class="cell-dark"/>
    <rect x="190" y="795" width="90" height="90" class="cell-light"/>
    <rect x="280" y="795" width="90" height="90" class="cell-dark"/>
    <rect x="370" y="795" width="90" height="90" class="cell-light"/>
    <rect x="460" y="795" width="90" height="90" class="cell-dark"/>
    <rect x="550" y="795" width="90" height="90" class="cell-light"/>
    <rect x="640" y="795" width="90" height="90" class="cell-dark"/>
    <rect x="730" y="795" width="90" height="90" class="cell-light"/>
  </g>

  <rect x="100" y="165" width="720" height="720" class="board-border"/>

  <!-- symbols in selected cells only + dots in all cells to reduce clutter -->
  <g opacity="0.85">
    <circle cx="145" cy="210" r="5" fill="#64748b"/>
    <circle cx="235" cy="210" r="5" fill="#64748b"/>
    <circle cx="325" cy="210" r="5" fill="#64748b"/>
    <circle cx="415" cy="210" r="5" fill="#64748b"/>
    <circle cx="505" cy="210" r="5" fill="#64748b"/>
    <circle cx="595" cy="210" r="5" fill="#64748b"/>
    <circle cx="685" cy="210" r="5" fill="#64748b"/>
    <circle cx="775" cy="210" r="5" fill="#64748b"/>

    <circle cx="145" cy="300" r="5" fill="#64748b"/>
    <circle cx="235" cy="300" r="5" fill="#64748b"/>
    <circle cx="325" cy="300" r="5" fill="#64748b"/>
    <circle cx="415" cy="300" r="5" fill="#64748b"/>
    <circle cx="505" cy="300" r="5" fill="#64748b"/>
    <circle cx="595" cy="300" r="5" fill="#64748b"/>
    <circle cx="685" cy="300" r="5" fill="#64748b"/>
    <circle cx="775" cy="300" r="5" fill="#64748b"/>

    <circle cx="145" cy="390" r="5" fill="#64748b"/>
    <circle cx="235" cy="390" r="5" fill="#64748b"/>
    <circle cx="325" cy="390" r="5" fill="#64748b"/>
    <circle cx="415" cy="390" r="5" fill="#64748b"/>
    <circle cx="505" cy="390" r="5" fill="#64748b"/>
    <circle cx="595" cy="390" r="5" fill="#64748b"/>
    <circle cx="685" cy="390" r="5" fill="#64748b"/>
    <circle cx="775" cy="390" r="5" fill="#64748b"/>

    <circle cx="145" cy="480" r="5" fill="#64748b"/>
    <circle cx="235" cy="480" r="5" fill="#64748b"/>
    <circle cx="325" cy="480" r="5" fill="#64748b"/>
    <circle cx="505" cy="480" r="5" fill="#64748b"/>
    <circle cx="595" cy="480" r="5" fill="#64748b"/>
    <circle cx="685" cy="480" r="5" fill="#64748b"/>
    <circle cx="775" cy="480" r="5" fill="#64748b"/>

    <circle cx="145" cy="570" r="5" fill="#64748b"/>
    <circle cx="235" cy="570" r="5" fill="#64748b"/>
    <circle cx="325" cy="570" r="5" fill="#64748b"/>
    <circle cx="415" cy="570" r="5" fill="#64748b"/>
    <circle cx="505" cy="570" r="5" fill="#64748b"/>
    <circle cx="595" cy="570" r="5" fill="#64748b"/>
    <circle cx="685" cy="570" r="5" fill="#64748b"/>
    <circle cx="775" cy="570" r="5" fill="#64748b"/>

    <circle cx="145" cy="660" r="5" fill="#64748b"/>
    <circle cx="235" cy="660" r="5" fill="#64748b"/>
    <circle cx="325" cy="660" r="5" fill="#64748b"/>
    <circle cx="415" cy="660" r="5" fill="#64748b"/>
    <circle cx="505" cy="660" r="5" fill="#64748b"/>
    <circle cx="595" cy="660" r="5" fill="#64748b"/>
    <circle cx="685" cy="660" r="5" fill="#64748b"/>
    <circle cx="775" cy="660" r="5" fill="#64748b"/>

    <circle cx="145" cy="750" r="5" fill="#64748b"/>
    <circle cx="235" cy="750" r="5" fill="#64748b"/>
    <circle cx="325" cy="750" r="5" fill="#64748b"/>
    <circle cx="415" cy="750" r="5" fill="#64748b"/>
    <circle cx="505" cy="750" r="5" fill="#64748b"/>
    <circle cx="595" cy="750" r="5" fill="#64748b"/>
    <circle cx="685" cy="750" r="5" fill="#64748b"/>
    <circle cx="775" cy="750" r="5" fill="#64748b"/>

    <circle cx="145" cy="840" r="5" fill="#64748b"/>
    <circle cx="235" cy="840" r="5" fill="#64748b"/>
    <circle cx="325" cy="840" r="5" fill="#64748b"/>
    <circle cx="415" cy="840" r="5" fill="#64748b"/>
    <circle cx="505" cy="840" r="5" fill="#64748b"/>
    <circle cx="595" cy="840" r="5" fill="#64748b"/>
    <circle cx="685" cy="840" r="5" fill="#64748b"/>
    <circle cx="775" cy="840" r="5" fill="#64748b"/>
  </g>

  <!-- active symbol and magnet -->
  <use href="#cell-symbol" x="370" y="435" width="90" height="90"/>
  <circle cx="415" cy="480" r="20" fill="#16a34a" stroke="#14532d" stroke-width="3"/>
  <text x="415" y="488" text-anchor="middle" font="800 22px Arial" fill="#ffffff">N</text>

  <!-- axis labels -->
  <g>
    <text x="145" y="935" text-anchor="middle" class="axis">A</text>
    <text x="235" y="935" text-anchor="middle" class="axis">B</text>
    <text x="325" y="935" text-anchor="middle" class="axis">C</text>
    <text x="415" y="935" text-anchor="middle" class="axis">D</text>
    <text x="505" y="935" text-anchor="middle" class="axis">E</text>
    <text x="595" y="935" text-anchor="middle" class="axis">F</text>
    <text x="685" y="935" text-anchor="middle" class="axis">G</text>
    <text x="775" y="935" text-anchor="middle" class="axis">H</text>

    <text x="860" y="225" text-anchor="middle" class="axis">8</text>
    <text x="860" y="315" text-anchor="middle" class="axis">7</text>
    <text x="860" y="405" text-anchor="middle" class="axis">6</text>
    <text x="860" y="495" text-anchor="middle" class="axis">5</text>
    <text x="860" y="585" text-anchor="middle" class="axis">4</text>
    <text x="860" y="675" text-anchor="middle" class="axis">3</text>
    <text x="860" y="765" text-anchor="middle" class="axis">2</text>
    <text x="860" y="855" text-anchor="middle" class="axis">1</text>
  </g>

  <!-- bus labels -->
  <line x1="145" y1="970" x2="775" y2="970" class="col-wire"/>
  <text x="460" y="1012" text-anchor="middle" class="label" fill="#1d4ed8">Colunas A–H: saídas GPIO</text>

  <line x1="905" y1="210" x2="905" y2="850" class="row-wire"/>
  <text x="950" y="530" transform="rotate(90 950 530)" text-anchor="middle" class="label" fill="#c2410c">Linhas 1–8: entradas GPIO</text>

  <!-- highlight arrows -->
  <path d="M415 956 L415 525" class="arrow-blue"/>
  <path d="M885 480 L460 480" class="arrow-orange"/>

  <!-- zoom/callout panel -->
  <rect x="980" y="165" width="525" height="360" class="callout"/>
  <text x="1242" y="215" text-anchor="middle" class="label">Detalhe de uma casa</text>

  <rect x="1040" y="255" width="410" height="145" fill="#ffffff" stroke="#cbd5e1" stroke-width="3" rx="18"/>
  <line x1="1070" y1="328" x2="1140" y2="328" class="col-wire"/>
  <line x1="1380" y1="328" x2="1420" y2="328" class="row-wire"/>
  <text x="1105" y="292" text-anchor="middle" class="small" fill="#2563eb">COLUNA</text>
  <text x="1400" y="292" text-anchor="middle" class="small" fill="#ea580c">LINHA</text>

  <line x1="1145" y1="360" x2="1200" y2="305" class="reed"/>
  <line x1="1218" y1="287" x2="1270" y2="235" class="reed"/>
  <text x="1210" y="395" text-anchor="middle" class="small">reed switch</text>

  <polygon points="1280,328 1325,300 1325,356" fill="#f3e8ff" stroke="#7e22ce" stroke-width="5"/>
  <line x1="1340" y1="295" x2="1340" y2="362" class="diode"/>
  <text x="1320" y="395" text-anchor="middle" class="small">diodo</text>

  <circle cx="1198" cy="278" r="22" fill="#16a34a" stroke="#14532d" stroke-width="3"/>
  <text x="1198" y="286" text-anchor="middle" font="800 22px Arial" fill="#ffffff">N</text>

  <text x="1242" y="455" text-anchor="middle" class="text">Peça com ímã fecha o reed switch.</text>
  <text x="1242" y="488" text-anchor="middle" class="text">O diodo isola a casa na matriz.</text>

  <!-- explanation cards -->
  <rect x="980" y="575" width="250" height="130" class="blue-card"/>
  <text x="1105" y="620" text-anchor="middle" class="label">1</text>
  <text x="1105" y="655" text-anchor="middle" class="small">ESP32 ativa</text>
  <text x="1105" y="685" text-anchor="middle" class="small">uma coluna</text>

  <rect x="1255" y="575" width="250" height="130" class="orange-card"/>
  <text x="1380" y="620" text-anchor="middle" class="label">2</text>
  <text x="1380" y="655" text-anchor="middle" class="small">ESP32 lê</text>
  <text x="1380" y="685" text-anchor="middle" class="small">as linhas</text>

  <rect x="980" y="735" width="250" height="130" class="green-card"/>
  <text x="1105" y="780" text-anchor="middle" class="label">3</text>
  <text x="1105" y="815" text-anchor="middle" class="small">Reed fechado</text>
  <text x="1105" y="845" text-anchor="middle" class="small">indica peça</text>

  <rect x="1255" y="735" width="250" height="130" class="purple-card"/>
  <text x="1380" y="780" text-anchor="middle" class="label">4</text>
  <text x="1380" y="815" text-anchor="middle" class="small">Coluna + linha</text>
  <text x="1380" y="845" text-anchor="middle" class="small">identificam a casa</text>

  <rect x="980" y="910" width="525" height="85" class="note-card"/>
  <text x="1242" y="945" text-anchor="middle" class="label">Exemplo: coluna D + linha 5 = casa D5</text>
  <text x="1242" y="975" text-anchor="middle" class="small">A mesma lógica é repetida para as 64 casas do tabuleiro.</text>
</svg>
